<svg width="16" height="16" viewBox="0 0 16 16" fill="none" xmlns="http://www.w3.org/2000/svg">
<g clip-path="url(#clip0_393_3422)">
<mask id="mask0_393_3422" style="mask-type:luminance" maskUnits="userSpaceOnUse" x="0" y="0" width="16" height="16">
<path d="M16 0H0V16H16V0Z" fill="white"/>
</mask>
<g mask="url(#mask0_393_3422)">
<path d="M6.99342 1.48703L3.66677 2.73369C2.9001 3.02036 2.27344 3.92702 2.27344 4.74702V9.70033C2.27344 10.487 2.79345 11.5203 3.42678 11.9937L6.29344 14.1337C7.23342 14.8403 8.78008 14.8403 9.72008 14.1337L12.5868 11.9937C13.2201 11.5203 13.7401 10.487 13.7401 9.70033V4.74702C13.7401 3.92702 13.1134 3.02036 12.3468 2.73369L9.02008 1.48703C8.45342 1.28036 7.54675 1.28036 6.99342 1.48703Z" stroke="#202830" stroke-width="1.5" stroke-linecap="round" stroke-linejoin="round"/>
<path d="M8.00044 7.28027C7.97378 7.28027 7.94044 7.28027 7.91378 7.28027C7.28711 7.26027 6.78711 6.74027 6.78711 6.10693C6.78711 5.46027 7.31378 4.93359 7.96044 4.93359C8.60711 4.93359 9.13378 5.46027 9.13378 6.10693C9.12711 6.74693 8.62711 7.26027 8.00044 7.28027Z" stroke="#202830" stroke-width="1.5" stroke-linecap="round" stroke-linejoin="round"/>
<path d="M6.67334 9.14723C6.03337 9.57389 6.03337 10.2739 6.67334 10.7006C7.40001 11.1872 8.59334 11.1872 9.32001 10.7006C9.96001 10.2739 9.96001 9.57389 9.32001 9.14723C8.60001 8.66056 7.40667 8.66056 6.67334 9.14723Z" stroke="#202830" stroke-width="1.5" stroke-linecap="round" stroke-linejoin="round"/>
</g>
</g>
<defs>
<clipPath id="clip0_393_3422">
<rect width="16" height="16" fill="white"/>
</clipPath>
</defs>
</svg>
