<svg width="16" height="16" viewBox="0 0 16 16" fill="none" xmlns="http://www.w3.org/2000/svg">
<g clip-path="url(#clip0_393_3443)">
<mask id="mask0_393_3443" style="mask-type:luminance" maskUnits="userSpaceOnUse" x="0" y="0" width="16" height="16">
<path d="M16 0H0V16H16V0Z" fill="white"/>
</mask>
<g mask="url(#mask0_393_3443)">
<path d="M11.9997 4.77301C11.9597 4.76634 11.9131 4.76634 11.8731 4.77301C10.9531 4.73967 10.2197 3.98634 10.2197 3.05301C10.2197 2.09967 10.9864 1.33301 11.9397 1.33301C12.8931 1.33301 13.6597 2.10634 13.6597 3.05301C13.6531 3.98634 12.9197 4.73967 11.9997 4.77301Z" stroke="#202830" stroke-width="1.5" stroke-linecap="round" stroke-linejoin="round"/>
<path d="M11.313 9.62647C12.2263 9.7798 13.233 9.6198 13.9396 9.14647C14.8796 8.5198 14.8796 7.49314 13.9396 6.86647C13.2263 6.39311 12.2063 6.23311 11.293 6.39311" stroke="#202830" stroke-width="1.5" stroke-linecap="round" stroke-linejoin="round"/>
<path d="M3.98031 4.77301C4.02031 4.76634 4.06698 4.76634 4.10698 4.77301C5.02698 4.73967 5.76031 3.98634 5.76031 3.05301C5.76031 2.09967 4.99365 1.33301 4.04031 1.33301C3.08698 1.33301 2.32031 2.10634 2.32031 3.05301C2.32698 3.98634 3.06031 4.73967 3.98031 4.77301Z" stroke="#202830" stroke-width="1.5" stroke-linecap="round" stroke-linejoin="round"/>
<path d="M4.66663 9.62647C3.75329 9.7798 2.74663 9.6198 2.03996 9.14647C1.09996 8.5198 1.09996 7.49314 2.03996 6.86647C2.75329 6.39311 3.77329 6.23311 4.68663 6.39311" stroke="#202830" stroke-width="1.5" stroke-linecap="round" stroke-linejoin="round"/>
<path d="M7.99974 9.75248C7.95974 9.74581 7.91307 9.74581 7.87307 9.75248C6.95307 9.71915 6.21973 8.96581 6.21973 8.03248C6.21973 7.07915 6.98641 6.3125 7.93974 6.3125C8.89307 6.3125 9.65974 7.08581 9.65974 8.03248C9.65307 8.96581 8.91974 9.72581 7.99974 9.75248Z" stroke="#202830" stroke-width="1.5" stroke-linecap="round" stroke-linejoin="round"/>
<path d="M6.06047 11.8523C5.12047 12.4789 5.12047 13.5056 6.06047 14.1323C7.12713 14.8456 8.8738 14.8456 9.94046 14.1323C10.8805 13.5056 10.8805 12.4789 9.94046 11.8523C8.88046 11.1456 7.12713 11.1456 6.06047 11.8523Z" stroke="#202830" stroke-width="1.5" stroke-linecap="round" stroke-linejoin="round"/>
</g>
</g>
<defs>
<clipPath id="clip0_393_3443">
<rect width="16" height="16" fill="white"/>
</clipPath>
</defs>
</svg>
