<svg width="20" height="20" viewBox="0 0 20 20" fill="none" xmlns="http://www.w3.org/2000/svg">
<g clip-path="url(#clip0_35_1259)">
<mask id="mask0_35_1259" style="mask-type:luminance" maskUnits="userSpaceOnUse" x="0" y="0" width="20" height="20">
<path d="M20 0H0V20H20V0Z" fill="white"/>
</mask>
<g mask="url(#mask0_35_1259)">
<path d="M2.5 18.333H17.5" stroke="#64748B" stroke-width="1.5" stroke-linecap="round" stroke-linejoin="round"/>
<path d="M4.66665 6.98389H3.33333C2.875 6.98389 2.5 7.35889 2.5 7.81722V15.0006C2.5 15.4589 2.875 15.8339 3.33333 15.8339H4.66665C5.12498 15.8339 5.49998 15.4589 5.49998 15.0006V7.81722C5.49998 7.35889 5.12498 6.98389 4.66665 6.98389Z" stroke="#64748B" stroke-width="1.5" stroke-linecap="round" stroke-linejoin="round"/>
<path d="M10.6666 4.32422H9.33333C8.875 4.32422 8.5 4.69922 8.5 5.15755V14.9993C8.5 15.4576 8.875 15.8326 9.33333 15.8326H10.6666C11.1249 15.8326 11.4999 15.4576 11.4999 14.9993V5.15755C11.4999 4.69922 11.1249 4.32422 10.6666 4.32422Z" stroke="#64748B" stroke-width="1.5" stroke-linecap="round" stroke-linejoin="round"/>
<path d="M16.6667 1.6665H15.3333C14.875 1.6665 14.5 2.0415 14.5 2.49984V14.9998C14.5 15.4582 14.875 15.8332 15.3333 15.8332H16.6667C17.125 15.8332 17.5 15.4582 17.5 14.9998V2.49984C17.5 2.0415 17.125 1.6665 16.6667 1.6665Z" stroke="#64748B" stroke-width="1.5" stroke-linecap="round" stroke-linejoin="round"/>
</g>
</g>
<defs>
<clipPath id="clip0_35_1259">
<rect width="20" height="20" fill="white"/>
</clipPath>
</defs>
</svg>
