<svg width="16" height="16" viewBox="0 0 16 16" fill="none" xmlns="http://www.w3.org/2000/svg">
<g clip-path="url(#clip0_148_160)">
<mask id="mask0_148_160" style="mask-type:luminance" maskUnits="userSpaceOnUse" x="0" y="0" width="16" height="16">
<path d="M16 0H0V16H16V0Z" fill="white"/>
</mask>
<g mask="url(#mask0_148_160)">
<path d="M3.33301 6V10.6667" stroke="#202830" stroke-width="1.5" stroke-linecap="round" stroke-linejoin="round"/>
<path d="M3.49967 5.66634C4.69629 5.66634 5.66634 4.69629 5.66634 3.49967C5.66634 2.30305 4.69629 1.33301 3.49967 1.33301C2.30305 1.33301 1.33301 2.30305 1.33301 3.49967C1.33301 4.69629 2.30305 5.66634 3.49967 5.66634Z" stroke="#202830" stroke-width="1.5" stroke-linecap="round" stroke-linejoin="round"/>
<path d="M3.33301 14.666C4.43757 14.666 5.33301 13.7706 5.33301 12.666C5.33301 11.5614 4.43757 10.666 3.33301 10.666C2.22844 10.666 1.33301 11.5614 1.33301 12.666C1.33301 13.7706 2.22844 14.666 3.33301 14.666Z" stroke="#202830" stroke-width="1.5" stroke-linecap="round" stroke-linejoin="round"/>
<path d="M12.666 14.666C13.7706 14.666 14.666 13.7706 14.666 12.666C14.666 11.5614 13.7706 10.666 12.666 10.666C11.5614 10.666 10.666 11.5614 10.666 12.666C10.666 13.7706 11.5614 14.666 12.666 14.666Z" stroke="#202830" stroke-width="1.5" stroke-linecap="round" stroke-linejoin="round"/>
<path d="M3.41992 6C3.71992 7.16667 4.78659 8.03333 6.04659 8.02667L8.33326 8.02C10.0799 8.01333 11.5666 9.13333 12.1133 10.6933" stroke="#202830" stroke-width="1.5" stroke-linecap="round" stroke-linejoin="round"/>
</g>
</g>
<defs>
<clipPath id="clip0_148_160">
<rect width="16" height="16" fill="white"/>
</clipPath>
</defs>
</svg>
