<svg width="20" height="20" viewBox="0 0 20 20" fill="none" xmlns="http://www.w3.org/2000/svg">
<g clip-path="url(#clip0_65_154)">
<mask id="mask0_65_154" style="mask-type:luminance" maskUnits="userSpaceOnUse" x="0" y="0" width="20" height="20">
<path d="M20 0H0V20H20V0Z" fill="white"/>
</mask>
<g mask="url(#mask0_65_154)">
<path d="M6.17513 16.3418L5.35013 16.5335C4.75846 16.6668 4.30013 17.1335 4.15846 17.7251L3.9668 18.5501C3.95013 18.6335 3.8168 18.6335 3.80013 18.5501L3.60846 17.7251C3.47513 17.1335 3.00846 16.6751 2.4168 16.5335L1.5918 16.3418C1.50846 16.3251 1.50846 16.1918 1.5918 16.1751L2.4168 15.9835C3.00846 15.8501 3.4668 15.3835 3.60846 14.7918L3.80013 13.9668C3.8168 13.8835 3.95013 13.8835 3.9668 13.9668L4.15846 14.7918C4.2918 15.3835 4.75846 15.8418 5.35013 15.9835L6.17513 16.1751C6.25846 16.1918 6.25846 16.3251 6.17513 16.3418Z" stroke="#64748B" stroke-width="1.5" stroke-miterlimit="10"/>
<path d="M3.7998 5.3665C3.7998 7.3665 5.3748 8.9915 7.35814 9.05817C7.4498 9.04984 7.5498 9.04984 7.63314 9.05817C9.61647 8.9915 11.1915 7.3665 11.1998 5.3665C11.1998 3.32484 9.5498 1.6665 7.4998 1.6665" stroke="#64748B" stroke-width="1.5" stroke-linecap="round" stroke-linejoin="round"/>
<path d="M13.6747 3.33301C15.2914 3.33301 16.5914 4.64134 16.5914 6.24967C16.5914 7.85801 15.3414 9.10801 13.7831 9.16634C13.7164 9.15801 13.6414 9.15801 13.5664 9.16634" stroke="#64748B" stroke-width="1.5" stroke-linecap="round" stroke-linejoin="round"/>
<path d="M7.50026 18.1747C9.05858 18.1997 10.6252 17.8164 11.8086 17.0247C13.8252 15.6747 13.8252 13.4747 11.8086 12.133C10.6336 11.3497 9.05858 10.9664 7.50026 10.9914C6.66693 11.008 5.84193 11.133 5.08359 11.3747C4.76693 11.4747 4.46693 11.5914 4.18359 11.733" stroke="#64748B" stroke-width="1.5" stroke-linecap="round" stroke-linejoin="round"/>
<path d="M15.2832 16.6665C15.8832 16.5415 16.4499 16.2998 16.9165 15.9415C18.2165 14.9665 18.2165 13.3582 16.9165 12.3832C16.4582 12.0332 15.8999 11.7998 15.3082 11.6665" stroke="#64748B" stroke-width="1.5" stroke-linecap="round" stroke-linejoin="round"/>
</g>
</g>
<defs>
<clipPath id="clip0_65_154">
<rect width="20" height="20" fill="white"/>
</clipPath>
</defs>
</svg>
