<svg width="24" height="24" viewBox="0 0 24 24" fill="none" xmlns="http://www.w3.org/2000/svg">
<path opacity="0.7" d="M4.73123 20.7164C6.14472 20.7164 7.29059 19.5705 7.29059 18.157C7.29059 16.7435 6.14472 15.5977 4.73123 15.5977C3.31774 15.5977 2.17188 16.7435 2.17188 18.157C2.17188 19.5705 3.31774 20.7164 4.73123 20.7164Z" fill="#0066CC"/>
<path opacity="0.4" d="M21.1979 18.4466C22.4247 18.4466 23.4192 17.452 23.4192 16.2252C23.4192 14.9984 22.4247 14.0039 21.1979 14.0039C19.9711 14.0039 18.9766 14.9984 18.9766 16.2252C18.9766 17.452 19.9711 18.4466 21.1979 18.4466Z" fill="#0066CC"/>
<path opacity="0.2" d="M19.1709 7.24326C20.1844 7.24326 21.006 6.4217 21.006 5.40825C21.006 4.3948 20.1844 3.57324 19.1709 3.57324C18.1575 3.57324 17.3359 4.3948 17.3359 5.40825C17.3359 6.4217 18.1575 7.24326 19.1709 7.24326Z" fill="#0066CC"/>
<path opacity="0.8" d="M2.71606 14.4686C4.21609 14.4686 5.43211 13.2823 5.43211 11.8188C5.43211 10.3553 4.21609 9.16895 2.71606 9.16895C1.21602 9.16895 0 10.3553 0 11.8188C0 13.2823 1.21602 14.4686 2.71606 14.4686Z" fill="#0066CC"/>
<path opacity="0.6" d="M10.516 23.9996C11.8797 23.9996 12.9852 22.9224 12.9852 21.5935C12.9852 20.2647 11.8797 19.1875 10.516 19.1875C9.15235 19.1875 8.04688 20.2647 8.04688 21.5935C8.04688 22.9224 9.15235 23.9996 10.516 23.9996Z" fill="#0066CC"/>
<path opacity="0.5" d="M16.8613 22.9459C18.1568 22.9459 19.207 21.9233 19.207 20.6619C19.207 19.4005 18.1568 18.3779 16.8613 18.3779C15.5658 18.3779 14.5156 19.4005 14.5156 20.6619C14.5156 21.9233 15.5658 22.9459 16.8613 22.9459Z" fill="#0066CC"/>
<path opacity="0.9" d="M5.65198 8.31486C7.22019 8.31486 8.49147 7.07393 8.49147 5.54317C8.49147 4.01241 7.22019 2.77148 5.65198 2.77148C4.08378 2.77148 2.8125 4.01241 2.8125 5.54317C2.8125 7.07393 4.08378 8.31486 5.65198 8.31486Z" fill="#0066CC"/>
<path opacity="0.3" d="M21.9035 12.5132C23.0626 12.5132 24.0022 11.591 24.0022 10.4534C24.0022 9.31578 23.0626 8.39355 21.9035 8.39355C20.7443 8.39355 19.8047 9.31578 19.8047 10.4534C19.8047 11.591 20.7443 12.5132 21.9035 12.5132Z" fill="#0066CC"/>
<path d="M12.701 5.98793C14.3545 5.98793 15.695 4.64748 15.695 2.99396C15.695 1.34044 14.3545 0 12.701 0C11.0475 0 9.70703 1.34044 9.70703 2.99396C9.70703 4.64748 11.0475 5.98793 12.701 5.98793Z" fill="#0066CC"/>
</svg>
