<svg width="24" height="24" viewBox="0 0 24 24" fill="none" xmlns="http://www.w3.org/2000/svg">
<path d="M14.8492 5.83182C15.3985 5.19577 16.3591 5.12544 16.9951 5.67472C17.6312 6.22404 17.7015 7.18456 17.1522 7.82062L8.89121 17.3859C8.36179 17.9989 7.44503 18.0902 6.80558 17.5931L2.89246 14.5496C2.22915 14.0337 2.10924 13.0773 2.62496 12.4139C3.14087 11.7506 4.0973 11.6307 4.7607 12.1464L7.53249 14.3025L14.8492 5.83182Z" fill="white"/>
<path d="M1.47656 11.5186C2.48531 10.2221 4.35565 9.98731 5.65332 10.9961C5.68468 11.0205 5.70502 11.0563 5.70996 11.0957C5.71489 11.1351 5.70399 11.1747 5.67969 11.2061L4.87891 12.2363C4.82806 12.3017 4.73337 12.3135 4.66797 12.2627C4.10744 11.8272 3.31501 11.8948 2.83496 12.3975L2.74316 12.5039C2.2785 13.1018 2.38667 13.9637 2.98438 14.4287C3.01578 14.4531 3.03608 14.4898 3.04102 14.5293C3.04585 14.5686 3.03507 14.6083 3.01074 14.6396L2.20996 15.6689C2.15909 15.7343 2.06441 15.7462 1.99902 15.6953C0.702543 14.6867 0.468022 12.8172 1.47656 11.5195V11.5186Z" fill="#0066CC" stroke="#0066CC" stroke-width="0.3" stroke-linecap="round" stroke-linejoin="round"/>
<path d="M13.75 4.88086C14.8242 3.63745 16.7024 3.49932 17.9463 4.57324C18.0037 4.62284 18.015 4.70755 17.9727 4.77051L17.2334 5.86621C17.2087 5.90277 17.1688 5.92686 17.125 5.93164C17.0811 5.93637 17.0368 5.92113 17.0049 5.89062L16.8975 5.78809C16.3242 5.29319 15.459 5.35663 14.9639 5.92969H14.9629L11.3047 10.165C11.2711 10.2039 11.2198 10.2234 11.1689 10.2158C11.1184 10.2082 11.0755 10.1746 11.0547 10.1279L10.4717 8.80566C10.4485 8.75273 10.4583 8.69123 10.4961 8.64746L13.75 4.88086Z" fill="#0066CC" stroke="#0066CC" stroke-width="0.3" stroke-linecap="round" stroke-linejoin="round"/>
<path d="M17.5693 7.56836C18.4796 6.51484 20.0711 6.39857 21.125 7.30859C22.179 8.21885 22.296 9.81115 21.3857 10.8652L13.125 20.4297C12.248 21.4451 10.728 21.5975 9.66797 20.7734L5.75488 17.7295C4.65608 16.8747 4.45772 15.29 5.3125 14.1904C6.16716 13.0919 7.75109 12.8928 8.85059 13.7471L8.85156 13.748L10.873 15.3193L17.5693 7.56836Z" fill="#0066CC" fill-opacity="0.1" stroke="#0066CC" stroke-width="2" stroke-linecap="round" stroke-linejoin="round"/>
</svg>
