<svg width="48" height="48" viewBox="0 0 48 48" fill="none" xmlns="http://www.w3.org/2000/svg">
<path d="M35.948 14.2918C35.6285 14.2324 35.3276 14.0983 35.0697 13.9005C34.8118 13.7028 34.6043 13.4469 34.464 13.1538C31.364 6.61183 24.178 2.95383 16.996 4.27783C13.7912 4.87395 10.8473 6.44116 8.56329 8.76699C6.27932 11.0928 4.76582 14.0647 4.228 17.2798C3.90461 19.195 3.92697 21.1526 4.294 23.0598C4.414 23.6778 4.148 24.3658 3.602 24.8618C2.46855 25.8935 1.56277 27.1504 0.942557 28.552C0.322339 29.9536 0.00131605 31.4691 0 33.0018C0 39.0658 4.934 44.0018 11 44.0018H33C41.272 44.0018 48 37.2738 48 29.0018C48 21.8718 42.932 15.6838 35.948 14.2918ZM30.242 27.4158C30.0567 27.6022 29.8364 27.7501 29.5937 27.851C29.351 27.9519 29.0908 28.0039 28.828 28.0039C28.5652 28.0039 28.305 27.9519 28.0623 27.851C27.8196 27.7501 27.5993 27.6022 27.414 27.4158L24 24.0018V34.0018C24 34.5323 23.7893 35.041 23.4142 35.416C23.0391 35.7911 22.5304 36.0018 22 36.0018C21.4696 36.0018 20.9609 35.7911 20.5858 35.416C20.2107 35.041 20 34.5323 20 34.0018V24.0018L16.586 27.4158C16.211 27.7908 15.7024 28.0015 15.172 28.0015C14.6416 28.0015 14.133 27.7908 13.758 27.4158C13.383 27.0408 13.1723 26.5322 13.1723 26.0018C13.1723 25.7392 13.224 25.4792 13.3245 25.2366C13.425 24.994 13.5723 24.7735 13.758 24.5878L19.172 19.1738C19.9148 18.4308 20.9214 18.0117 21.972 18.0078L22 18.0018L22.028 18.0078C23.0787 18.0115 24.0853 18.4306 24.828 19.1738L30.242 24.5878C30.4279 24.7734 30.5754 24.9938 30.676 25.2364C30.7766 25.4791 30.8284 25.7392 30.8284 26.0018C30.8284 26.2645 30.7766 26.5246 30.676 26.7672C30.5754 27.0098 30.4279 27.2302 30.242 27.4158Z" fill="#0066CC"/>
</svg>
