<svg width="48" height="40" viewBox="0 0 48 40" fill="none" xmlns="http://www.w3.org/2000/svg">
<path d="M35.948 10.283C35.6285 10.2236 35.3276 10.0895 35.0697 9.89175C34.8118 9.694 34.6043 9.43816 34.464 9.14504C31.364 2.60304 24.178 -1.05496 16.996 0.269038C13.7912 0.865156 10.8473 2.43237 8.56329 4.7582C6.27932 7.08403 4.76582 10.056 4.228 13.271C3.90461 15.1862 3.92697 17.1438 4.294 19.051C4.414 19.669 4.148 20.357 3.602 20.853C2.46855 21.8848 1.56277 23.1416 0.942557 24.5432C0.322339 25.9448 0.00131605 27.4603 0 28.993C0 35.057 4.934 39.993 11 39.993H33C41.272 39.993 48 33.265 48 24.993C48 17.863 42.932 11.675 35.948 10.283ZM30.242 23.407C30.0567 23.5934 29.8364 23.7413 29.5937 23.8422C29.351 23.9431 29.0908 23.9951 28.828 23.9951C28.5652 23.9951 28.305 23.9431 28.0623 23.8422C27.8196 23.7413 27.5993 23.5934 27.414 23.407L24 19.993V29.993C24 30.5235 23.7893 31.0322 23.4142 31.4072C23.0391 31.7823 22.5304 31.993 22 31.993C21.4696 31.993 20.9609 31.7823 20.5858 31.4072C20.2107 31.0322 20 30.5235 20 29.993V19.993L16.586 23.407C16.211 23.7821 15.7024 23.9927 15.172 23.9927C14.6416 23.9927 14.133 23.7821 13.758 23.407C13.383 23.032 13.1723 22.5234 13.1723 21.993C13.1723 21.7304 13.224 21.4704 13.3245 21.2278C13.425 20.9852 13.5723 20.7647 13.758 20.579L19.172 15.165C19.9148 14.422 20.9214 14.0029 21.972 13.999L22 13.993L22.028 13.999C23.0787 14.0027 24.0853 14.4218 24.828 15.165L30.242 20.579C30.4279 20.7646 30.5754 20.985 30.676 21.2276C30.7766 21.4703 30.8284 21.7304 30.8284 21.993C30.8284 22.2557 30.7766 22.5158 30.676 22.7584C30.5754 23.001 30.4279 23.2215 30.242 23.407Z" fill="#0066CC"/>
</svg>
